<svg xmlns="http://www.w3.org/2000/svg" width="1379.538" height="1069.858" viewBox="0 0 1379.538 1069.858"><g transform="translate(-47.065 -5.524)"><circle cx="3.032" cy="3.032" r="3.032" transform="translate(1310.394 985.294)" fill="#0f7" opacity="0.824"/><circle cx="2.242" cy="2.242" r="2.242" transform="translate(1290.771 863.82)" fill="#0f7" opacity="0.915"/><circle cx="2.399" cy="2.399" r="2.399" transform="translate(1320.089 796.808)" fill="#0f7" opacity="0.805"/><circle cx="3.434" cy="3.434" r="3.434" transform="translate(1312.877 627.988)" fill="#0f7" opacity="0.853"/><circle cx="1.838" cy="1.838" r="1.838" transform="translate(1392.634 580.197)" fill="#0f7" opacity="0.992"/><circle cx="1.899" cy="1.899" r="1.899" transform="translate(1361.585 372.115)" fill="#0f7" opacity="0.837"/><circle cx="1.939" cy="1.939" r="1.939" transform="translate(1422.725 273.477)" fill="#0f7" opacity="0.82"/><circle cx="3.001" cy="3.001" r="3.001" transform="translate(1291.063 226.842)" fill="#0f7" opacity="0.893"/><circle cx="1.924" cy="1.924" r="1.924" transform="translate(1369.887 42.804)" fill="#0f7" opacity="0.923"/><circle cx="2.083" cy="2.083" r="2.083" transform="translate(1168.479 987.78)" fill="#0f7" opacity="0.945"/><circle cx="2.577" cy="2.577" r="2.577" transform="translate(1232.255 888.453)" fill="#0f7" opacity="0.835"/><circle cx="1.99" cy="1.99" r="1.99" transform="translate(1134.869 800.273)" fill="#0f7" opacity="0.961"/><circle cx="2.643" cy="2.643" r="2.643" transform="translate(1123.526 695.818)" fill="#0f7" opacity="0.97"/><circle cx="2.34" cy="2.34" r="2.34" transform="translate(1154.534 501.063)" fill="#0f7" opacity="0.885"/><circle cx="2.874" cy="2.874" r="2.874" transform="translate(1246.015 395.696)" fill="#0f7" opacity="0.853"/><circle cx="2.527" cy="2.527" r="2.527" transform="translate(1191.555 303.88)" fill="#0f7" opacity="0.873"/><circle cx="3.234" cy="3.234" r="3.234" transform="translate(1124.203 132.839)" fill="#0f7" opacity="0.806"/><circle cx="2.446" cy="2.446" r="2.446" transform="translate(1274.087 86.649)" fill="#0f7" opacity="0.839"/><circle cx="2.994" cy="2.994" r="2.994" transform="translate(998.783 967.26)" fill="#0f7" opacity="0.969"/><circle cx="2.701" cy="2.701" r="2.701" transform="translate(1036.325 886.665)" fill="#0f7" opacity="0.807"/><circle cx="2.439" cy="2.439" r="2.439" transform="translate(1005.519 717.647)" fill="#0f7" opacity="0.803"/><circle cx="3.031" cy="3.031" r="3.031" transform="translate(1063.883 600.476)" fill="#0f7" opacity="0.997"/><circle cx="3.082" cy="3.082" r="3.082" transform="translate(1106.207 483.539)" fill="#0f7" opacity="0.809"/><circle cx="2.005" cy="2.005" r="2.005" transform="translate(1033.499 356.914)" fill="#0f7" opacity="0.894"/><circle cx="2.477" cy="2.477" r="2.477" transform="translate(1098.498 236.457)" fill="#0f7" opacity="0.95"/><circle cx="2.986" cy="2.986" r="2.986" transform="translate(1092.048 145.108)" fill="#0f7" opacity="0.948"/><circle cx="2.488" cy="2.488" r="2.488" transform="translate(1039.387 54.484)" fill="#0f7" opacity="0.994"/><circle cx="2.397" cy="2.397" r="2.397" transform="translate(878.629 1047.691)" fill="#0f7" opacity="0.943"/><circle cx="2.222" cy="2.222" r="2.222" transform="translate(858.31 862.511)" fill="#0f7" opacity="0.802"/><circle cx="2.088" cy="2.088" r="2.088" transform="translate(828.022 789.225)" fill="#0f7" opacity="0.898"/><circle cx="1.98" cy="1.98" r="1.98" transform="translate(802.966 627.538)" fill="#0f7" opacity="0.846"/><circle cx="2.505" cy="2.505" r="2.505" transform="translate(938.739 519.782)" fill="#0f7" opacity="0.98"/><circle cx="2.873" cy="2.873" r="2.873" transform="translate(885.197 427.779)" fill="#0f7" opacity="0.938"/><circle cx="2.4" cy="2.4" r="2.4" transform="translate(840.212 282.394)" fill="#0f7" opacity="0.955"/><circle cx="3.439" cy="3.439" r="3.439" transform="translate(954.633 145.677)" fill="#0f7" opacity="0.951"/><circle cx="3.173" cy="3.173" r="3.173" transform="translate(842.727 89.911)" fill="#0f7" opacity="0.824"/><circle cx="2.652" cy="2.652" r="2.652" transform="translate(675.979 1070.078)" fill="#0f7" opacity="0.865"/><circle cx="2.172" cy="2.172" r="2.172" transform="translate(741.646 864.088)" fill="#0f7" opacity="0.921"/><circle cx="3.046" cy="3.046" r="3.046" transform="translate(676.982 817.038)" fill="#0f7" opacity="0.871"/><circle cx="2.88" cy="2.88" r="2.88" transform="translate(714.406 643.932)" fill="#0f7" opacity="0.855"/><circle cx="2.444" cy="2.444" r="2.444" transform="translate(677.474 537.016)" fill="#0f7" opacity="0.935"/><circle cx="2.473" cy="2.473" r="2.473" transform="translate(735.965 470.848)" fill="#0f7" opacity="0.946"/><circle cx="2.265" cy="2.265" r="2.265" transform="translate(750.22 287.414)" fill="#0f7" opacity="0.813"/><circle cx="2.697" cy="2.697" r="2.697" transform="translate(783.603 230.807)" fill="#0f7" opacity="0.88"/><circle cx="2.15" cy="2.15" r="2.15" transform="translate(748.963 5.524)" fill="#0f7" opacity="0.981"/><circle cx="3.048" cy="3.048" r="3.048" transform="translate(591.756 981.956)" fill="#0f7" opacity="0.937"/><circle cx="1.855" cy="1.855" r="1.855" transform="translate(479.346 845.552)" fill="#0f7" opacity="0.904"/><circle cx="2.081" cy="2.081" r="2.081" transform="translate(609.056 788.79)" fill="#0f7" opacity="0.925"/><circle cx="1.77" cy="1.77" r="1.77" transform="translate(590.187 657.152)" fill="#0f7" opacity="0.906"/><circle cx="3.179" cy="3.179" r="3.179" transform="translate(492.898 530.634)" fill="#0f7" opacity="0.922"/><circle cx="2.096" cy="2.096" r="2.096" transform="translate(552.007 361.392)" fill="#0f7" opacity="0.916"/><circle cx="1.913" cy="1.913" r="1.913" transform="translate(593.298 345.766)" fill="#0f7" opacity="0.966"/><circle cx="2.34" cy="2.34" r="2.34" transform="translate(495.026 207.883)" fill="#0f7" opacity="0.997"/><circle cx="3.251" cy="3.251" r="3.251" transform="translate(549.115 101.437)" fill="#0f7" opacity="0.894"/><circle cx="3.187" cy="3.187" r="3.187" transform="translate(450.575 1004.156)" fill="#0f7" opacity="0.865"/><circle cx="2.41" cy="2.41" r="2.41" transform="translate(320.695 885.956)" fill="#0f7" opacity="0.877"/><circle cx="2.338" cy="2.338" r="2.338" transform="translate(364.216 818.958)" fill="#0f7" opacity="0.824"/><circle cx="2.843" cy="2.843" r="2.843" transform="translate(460.18 637.654)" fill="#0f7" opacity="0.841"/><circle cx="3.367" cy="3.367" r="3.367" transform="translate(366.66 581.338)" fill="#0f7" opacity="0.902"/><circle cx="1.925" cy="1.925" r="1.925" transform="translate(428.113 424.193)" fill="#0f7" opacity="0.827"/><circle cx="3.255" cy="3.255" r="3.255" transform="translate(390.872 327.721)" fill="#0f7" opacity="0.898"/><circle cx="2.537" cy="2.537" r="2.537" transform="translate(413.314 154.501)" fill="#0f7" opacity="0.818"/><circle cx="1.892" cy="1.892" r="1.892" transform="translate(320.408 16.263)" fill="#0f7" opacity="0.805"/><circle cx="3.458" cy="3.458" r="3.458" transform="translate(252.569 970.518)" fill="#0f7" opacity="0.891"/><circle cx="3.176" cy="3.176" r="3.176" transform="translate(281.602 882.583)" fill="#0f7" opacity="0.829"/><circle cx="2.572" cy="2.572" r="2.572" transform="translate(304.344 760.013)" fill="#0f7" opacity="0.842"/><circle cx="2.854" cy="2.854" r="2.854" transform="translate(289.148 659.503)" fill="#0f7" opacity="0.915"/><circle cx="2.488" cy="2.488" r="2.488" transform="translate(204.976 554.766)" fill="#0f7" opacity="0.803"/><circle cx="2.884" cy="2.884" r="2.884" transform="translate(298.575 420.26)" fill="#0f7" opacity="0.916"/><circle cx="3.428" cy="3.428" r="3.428" transform="translate(178.383 337.933)" fill="#0f7" opacity="0.988"/><circle cx="2.674" cy="2.674" r="2.674" transform="translate(222.687 234.678)" fill="#0f7" opacity="0.953"/><circle cx="2.547" cy="2.547" r="2.547" transform="translate(163.455 17.8)" fill="#0f7" opacity="0.847"/><circle cx="1.799" cy="1.799" r="1.799" transform="translate(66.767 958.143)" fill="#0f7" opacity="0.885"/><circle cx="3.441" cy="3.441" r="3.441" transform="translate(147.993 917.517)" fill="#0f7" opacity="0.992"/><circle cx="2.047" cy="2.047" r="2.047" transform="translate(61.319 742.091)" fill="#0f7" opacity="0.84"/><circle cx="3.251" cy="3.251" r="3.251" transform="translate(47.232 601.794)" fill="#0f7" opacity="0.844"/><circle cx="2.524" cy="2.524" r="2.524" transform="translate(121.485 513.642)" fill="#0f7" opacity="0.897"/><circle cx="2.68" cy="2.68" r="2.68" transform="translate(148.985 440.02)" fill="#0f7" opacity="0.952"/><circle cx="3.132" cy="3.132" r="3.132" transform="translate(127.68 281.482)" fill="#0f7" opacity="0.937"/><circle cx="2.208" cy="2.208" r="2.208" transform="translate(55.567 199.765)" fill="#0f7" opacity="0.823"/><circle cx="2.479" cy="2.479" r="2.479" transform="translate(95.069 24.518)" fill="#0f7" opacity="0.891"/></g></svg>