<?xml version="1.0" encoding="UTF-8"?>
<svg width="42px" height="64px" viewBox="0 0 42 64" version="1.1" xmlns="http://www.w3.org/2000/svg" xmlns:xlink="http://www.w3.org/1999/xlink">
    <!-- Generator: sketchtool 59.1 (101010) - https://sketch.com -->
    <title>55068CD9-01E6-430A-B90C-D933BFEA7E8D</title>
    <desc>Created with sketchtool.</desc>
    <g id="Page-1" stroke="none" stroke-width="1" fill="none" fill-rule="evenodd">
        <g id="Dashboard" transform="translate(-72.000000, -32.000000)" fill="#01FF77">
            <g id="Header" transform="translate(72.000000, 32.000000)">
                <path d="M13.8717333,7.15727558 C16.3707322,5.79156869 19.2611353,5.01395279 22.3382148,5.01395279 C23.9403742,5.01395279 25.4958646,5.22602986 26.9699041,5.62112639 C27.1072698,4.25802167 27.4176634,2.56227256 28.0666282,1.33317973 C26.5683736,2.44213893 25.6750563,3.64694482 25.5579433,3.79873822 C25.5231616,3.48994708 25.3853556,1.43639924 25.284973,0 C24.6804759,0.631026842 22.34658,3.1273777 21.9388857,3.53765357 C21.6047172,3.04454188 19.6507783,0.00607173593 19.6507783,0.00607173593 C19.6507783,0.00607173593 18.5703444,3.02155602 18.2586299,3.94489358 C17.4929923,3.44093949 15.1665811,1.88961096 14.164516,1.22085262 C14.3591174,2.49765195 14.6981288,4.55336825 14.7892657,4.98012455 C14.5880602,4.83440289 13.4834111,3.87853818 11.763258,3.12130597 C12.7063263,4.20294235 13.4178102,5.84057627 13.8717333,7.15727558 L13.8717333,7.15727558 Z M29.7022485,27.3501345 C29.7678495,26.0746363 29.4191519,24.9947347 29.4191519,24.9947347 C28.8917029,25.5845604 27.5827664,26.1487982 26.8391425,26.3049285 C26.4618271,25.6092811 25.7168824,24.2774024 25.7168824,24.2774024 C27.0694062,24.2340329 29.2866293,22.4029708 29.2866293,22.4029708 L30.9319356,22.3643719 C31.6526652,23.1818878 31.822171,24.0575189 31.822171,24.0575189 C31.4624666,25.8196234 30.4427905,26.9381239 29.7022485,27.3501345 L29.7022485,27.3501345 Z M24.8138791,22.6336968 C23.8703706,20.937514 23.0087531,19.3658018 23.0087531,19.3658018 C23.0087531,19.3658018 25.5601447,17.3287344 27.6672991,17.0229791 C28.7160333,17.8049319 29.6991666,18.1076513 29.6991666,18.1076513 L29.7022485,20.2232176 L29.7026888,20.2232176 C28.9145972,20.8438358 26.4715132,22.8561825 24.8138791,22.6336968 L24.8138791,22.6336968 Z M32.497112,17.1075497 C33.2609885,18.8449336 33.4208082,20.9591987 32.5895697,22.3968991 C32.1514964,21.4366974 31.5663714,20.9097575 30.9733215,20.27396 L30.9636354,18.1505872 C30.9636354,18.1505872 31.6671943,17.7771754 32.497112,17.1075497 L32.497112,17.1075497 Z M33.9663085,27.5895344 L35.3214739,29.0315717 C37.4123382,23.0756324 35.7864039,18.3379436 32.8035432,14.2438588 L32.6741024,15.2101322 L31.3792547,13.8626405 C31.3792547,13.8626405 31.6187641,13.7490123 31.8600346,13.4710136 C31.8745637,13.3604212 31.7785838,12.6951324 31.2414487,12.2618707 C30.7188427,12.3880761 30.3353635,12.6738814 30.1306358,12.954916 C29.41607,12.3386348 28.6165313,12.1022708 28.6165313,12.1022708 C28.75874,12.2067914 29.5996646,13.3313636 29.6943236,13.6535993 C30.4648042,14.2681457 31.4607055,14.9872128 32.1514964,15.8489656 C31.6059961,15.2409246 28.9506997,15.0934681 27.7293778,15.7353374 C27.7293778,15.7353374 26.5300697,14.3804729 25.4254206,13.4341494 C25.195157,12.607526 25.9563918,11.9257568 25.9563918,11.9257568 C25.9563918,11.9257568 25.1889931,11.904072 24.4537345,12.5923466 C23.3473243,11.8056231 21.9498926,11.4278744 21.9498926,11.4278744 C20.4010063,11.6581667 19.340825,12.7046737 19.340825,12.7046737 C19.7181404,12.9319301 20.1993606,13.2051583 20.6118979,13.3604212 C21.4735154,13.6830906 22.2602862,13.582907 22.7877352,13.5803048 C23.2095183,13.5772689 23.8091724,13.6969689 23.8091724,13.6969689 C23.8091724,13.6969689 24.8530636,14.4450935 26.3623251,16.1195915 C24.0667331,15.2344192 21.6284921,16.247098 19.9325541,15.4313169 C17.9535196,14.4789217 18.0908853,12.959253 18.0908853,12.959253 C18.0908853,12.959253 16.7445254,12.7753661 16.7335185,12.7519465 C16.7335185,12.7519465 17.7197337,11.4985668 19.2386813,11.0501257 L18.4712826,10.421701 C19.3522721,9.68702099 20.9729231,8.75327474 23.4926149,8.4058847 C23.4926149,8.4058847 24.619718,8.80705297 26.91531,10.3987152 C27.3119975,9.88565349 27.4062163,8.81789536 27.4062163,8.81789536 C28.5588553,9.21689515 30.9728812,10.8857551 31.9335605,11.9192513 C31.4272446,10.7487074 31.0433251,10.0096904 30.9218093,8.77756168 C30.3287594,8.21852828 28.9141569,7.05839302 25.9484669,6.36404665 C26.405472,7.31991136 26.3671681,8.11097182 26.3671681,8.11097182 C25.8221081,7.4396113 24.6531789,6.36144448 23.8571623,6.05395442 C23.3583311,6.01101857 22.8484931,5.9893338 22.336894,5.9893338 C19.5983857,5.9893338 17.010011,6.62383021 14.7302689,7.75143831 L14.73203,7.75143831 C15.9388228,7.81736001 16.7445254,8.79187363 17.019697,9.56601996 C16.0955606,8.87167359 14.6488181,8.56418353 13.7889617,9.45976458 C12.928665,10.3475391 13.0277268,12.0623708 13.8510404,13.4493288 C11.9120709,12.5060412 11.9213166,10.0266045 12.5834897,9.0221659 L12.5804078,9.02390068 C10.3759526,10.5583151 8.57390849,12.6018879 7.36711568,14.9724671 L7.3684365,14.9724671 L9.1449447,15.2456952 C7.12760627,17.4610115 5.73501756,21.4046039 5.73501756,23.2634225 L8.57919178,22.4168491 C8.06891347,24.0453754 7.91569789,29.5775942 9.62484407,32.3350297 C9.62484407,32.3350297 11.8627601,30.8600316 14.3916977,27.0964227 C15.4725719,30.4701394 14.9688977,33.2874249 14.4013837,36.0682799 C18.9687929,38.5507525 24.2859898,37.1555544 27.3842025,35.0048587 L27.9420305,37.1082815 C31.5923476,34.7992871 33.5793071,31.4884562 33.9663085,27.5895344 L33.9663085,27.5895344 Z M16.9703863,59.4110687 C16.019393,59.4110687 15.3070287,58.6854963 15.3070287,57.7721337 C15.3070287,56.8123657 16.019393,56.1102128 16.9703863,56.1102128 C17.8976047,56.1102128 18.6104094,56.8123657 18.6104094,57.7721337 C18.6104094,58.6854963 17.8976047,59.4110687 16.9703863,59.4110687 L16.9703863,59.4110687 Z M18.5866345,55.453598 C18.2062372,54.8685429 17.5651973,54.5406691 16.6142041,54.5406691 C14.9266314,54.5406691 13.4530321,56.0161009 13.4530321,57.7721337 C13.4530321,59.551586 14.9266314,61.0729896 16.6142041,61.0729896 C17.4938728,61.0729896 18.2062372,60.6752909 18.5866345,60.1127879 L18.7772734,60.9090527 L20.3221972,60.9090527 L20.3221972,54.6343473 L18.7772734,54.6343473 L18.5866345,55.453598 Z M24.481912,59.4110687 C23.5551339,59.4110687 22.8176739,58.6854963 22.8176739,57.7721337 C22.8176739,56.8123657 23.5551339,56.1102128 24.481912,56.1102128 C25.4086902,56.1102128 26.1452697,56.8123657 26.1452697,57.7721337 C26.1452697,58.6854963 25.4086902,59.4110687 24.481912,59.4110687 L24.481912,59.4110687 Z M26.0497301,55.4306121 C25.669773,54.8919624 25.0045181,54.5411028 24.2679386,54.5406691 C22.4614917,54.5406691 20.9878924,55.9454086 20.9878924,57.7721337 C20.9878924,59.621411 22.413942,61.0729896 24.2203889,61.0729896 C24.909859,61.0729896 25.5275643,60.863081 26.0501703,60.3239976 L26.0501703,60.7689691 C26.0501703,61.7053175 25.4800147,62.3380791 24.172399,62.3380791 C23.3407202,62.3380791 22.69924,61.939513 22.2237434,61.4949752 L21.2489753,62.8294561 C22.0093296,63.5554622 22.9603229,64 24.2917134,64 C25.2656009,64 26.0743854,63.6729937 26.6683159,63.2280221 C27.4528854,62.6191138 27.7852927,61.7998631 27.7852927,60.6288855 L27.7852927,54.634781 L26.240369,54.634781 L26.0497301,55.4306121 Z M22.0810944,46.9080633 L22.0810944,50.6074853 L23.8399916,50.6074853 L23.8399916,46.9314829 C23.8399916,46.2288963 24.1966141,45.8073444 24.8856439,45.8073444 C25.4800147,45.8073444 25.8599717,46.2288963 25.8599717,46.9080633 L25.8612925,46.9080633 L25.8612925,50.607919 L27.6201897,50.607919 L27.6201897,46.6040429 C27.6201897,45.1758838 26.6929713,44.168843 25.3382462,44.168843 C24.8631899,44.168843 24.1023953,44.2391017 23.4842497,45.1056252 L23.4367,45.1758838 L23.3887101,45.1056252 C22.9612034,44.4728635 22.3434981,44.168843 21.6060381,44.168843 C20.4177368,44.168843 20.0373395,45.1520306 20.0373395,45.1520306 L19.8467006,44.3323462 L18.3017768,44.3323462 L18.3017768,50.6074853 L20.060674,50.6074853 L20.060674,46.9314829 C20.060674,46.2288963 20.4172965,45.8073444 21.1067666,45.8073444 C21.7006971,45.8073444 22.0810944,46.2288963 22.0810944,46.9080633 L22.0810944,46.9080633 Z M28.4989779,50.6070516 L30.2574349,50.6070516 L30.2574349,44.3323462 L28.4989779,44.3323462 L28.4989779,50.6070516 Z M29.401541,43.4901097 C30.0196866,43.4901097 30.4951832,43.021285 30.4951832,42.4362298 C30.4951832,41.8268878 30.0196866,41.3593641 29.401541,41.3593641 C28.7838356,41.3593641 28.308339,41.8273215 28.308339,42.4362298 C28.308339,43.021285 28.7838356,43.4901097 29.401541,43.4901097 L29.401541,43.4901097 Z M37.3167986,57.0934004 C37.4594476,56.4142333 38.0775932,55.9926814 38.8141727,55.9926814 C39.5269773,55.9926814 40.1213481,56.4376529 40.2644373,57.0934004 L37.3167986,57.0934004 Z M42,57.7482805 C42,55.6175348 40.4070863,54.4704105 38.8621626,54.4704105 C36.7937523,54.4704105 35.4865769,56.0390868 35.4865769,57.7955533 C35.4865769,59.7389425 36.935961,61.0729896 38.909272,61.0729896 C39.9791394,61.0729896 40.9768017,60.6518713 41.6662718,59.8785924 L40.597285,58.8021603 C40.1455632,59.2701177 39.5987421,59.5277328 38.8854971,59.5277328 C38.101368,59.5277328 37.4594476,59.0593417 37.293464,58.3571888 L41.9515698,58.3571888 C42,58.123427 42,57.9122173 42,57.7482805 L42,57.7482805 Z M33.1099743,57.8653782 C33.1099743,58.872419 32.5389381,59.410635 31.754809,59.410635 C30.8997956,59.410635 30.4000839,58.942244 30.4000839,57.8653782 L30.4000839,54.6343473 L28.6416269,54.6343473 L28.6416269,57.9829097 C28.6416269,60.3239976 30.3525342,61.0729896 31.754809,61.0729896 C33.1337491,61.0729896 34.8688715,60.3239976 34.8688715,57.9829097 L34.8688715,54.6343473 L33.1099743,54.6343473 L33.1099743,57.8653782 Z M12.9299858,46.7913993 C13.0721946,46.1122322 13.6903402,45.6906803 14.4273599,45.6906803 C15.1406049,45.6906803 15.7345354,46.1356518 15.8767441,46.7913993 L12.9299858,46.7913993 Z M17.612747,47.4467131 C17.612747,45.3155338 16.0198333,44.168843 14.4753499,44.168843 C12.4069396,44.168843 11.0997641,45.7375194 11.0997641,47.4935522 C11.0997641,49.4369414 12.5500288,50.7714222 14.5224592,50.7714222 C15.5923266,50.7714222 16.5908695,50.3498702 17.2798994,49.5774587 L16.2104722,48.5001592 C15.7587505,48.968984 15.2119293,49.2265991 14.4986844,49.2265991 C13.7149955,49.2265991 13.0726348,48.7577743 12.9066513,48.0551877 L17.5651973,48.0551877 C17.612747,47.8214259 17.612747,47.6102162 17.612747,47.4467131 L17.612747,47.4467131 Z M1.8773311,42.8339285 L2.97097332,42.8339285 C3.92196656,42.8339285 4.61099638,43.3253055 4.61099638,44.2625213 C4.61099638,45.1993034 3.92196656,45.7140998 2.97097332,45.7140998 L1.8773311,45.7140998 L1.8773311,42.8339285 Z M1.8773311,47.4935522 L3.06563237,47.4935522 C5.08605273,47.4935522 6.56009225,46.299155 6.56009225,44.2625213 C6.56009225,42.2488734 5.0622779,41.0778958 3.06563237,41.0778958 L0,41.0778958 L0,50.607919 L1.8773311,50.607919 L1.8773311,47.4935522 Z M39.9082551,47.4462794 C39.9082551,46.4396723 40.5021856,45.9244421 41.3576393,45.9244421 C41.572053,45.9244421 41.7613711,45.9482954 41.9757849,45.9947008 L41.9757849,44.3323462 C41.8089208,44.2855071 41.6429373,44.2625213 41.4765134,44.2625213 C40.7157189,44.2625213 40.1455632,44.66022 39.8598249,45.2457088 L39.6696263,44.3323462 L38.1489177,44.3323462 L38.1489177,50.6074853 L39.9082551,50.6074853 L39.9082551,47.4462794 Z M1.8773311,51.6140924 L0,51.6140924 L0,60.9094864 L5.96572147,60.9094864 L5.96572147,59.1534536 L1.8773311,59.1534536 L1.8773311,51.6140924 Z M35.7238849,46.7913993 L32.7766864,46.7913993 C32.9197757,46.1122322 33.537481,45.6906803 34.2740605,45.6906803 C34.9873054,45.6906803 35.5821165,46.1356518 35.7238849,46.7913993 L35.7238849,46.7913993 Z M30.946905,47.4935522 C30.946905,49.4369414 32.3971697,50.7714222 34.3696001,50.7714222 C35.4390272,50.7714222 36.4371298,50.3498702 37.1265999,49.5774587 L36.0576131,48.5001592 C35.605451,48.968984 35.0586299,49.2265991 34.3458253,49.2265991 C33.5616961,49.2265991 32.9202159,48.7577743 32.7533519,48.0551877 L37.4123382,48.0551877 C37.4598878,47.8214259 37.4598878,47.6102162 37.4598878,47.4467131 C37.4598878,45.3155338 35.8669742,44.168843 34.3224907,44.168843 C32.2540804,44.168843 30.946905,45.7375194 30.946905,47.4935522 L30.946905,47.4935522 Z M8.1759002,57.0934004 C8.31898946,56.4142333 8.93625452,55.9926814 9.67327428,55.9926814 C10.3865192,55.9926814 10.98089,56.4376529 11.1230987,57.0934004 L8.1759002,57.0934004 Z M9.72038367,54.4704105 C7.65285392,54.4704105 6.34567849,56.0390868 6.34567849,57.7955533 C6.34567849,59.7389425 7.79594318,61.0729896 9.76881388,61.0729896 C10.838241,61.0729896 11.8363436,60.6518713 12.5253734,59.8785924 L11.4563866,58.8021603 C11.0037843,59.2701177 10.4574034,59.5277328 9.74459877,59.5277328 C8.9609099,59.5277328 8.31854919,59.0593417 8.1516851,58.3571888 L12.8111117,58.3571888 C12.8582211,58.123427 12.8582211,57.9122173 12.8582211,57.7482805 C12.8582211,55.6175348 11.2657477,54.4704105 9.72038367,54.4704105 L9.72038367,54.4704105 Z M8.91336024,47.4462794 C8.91336024,46.4396723 9.50729074,45.9244421 10.3631847,45.9244421 C10.5775984,45.9244421 10.7664762,45.9482954 10.98089,45.9947008 L10.98089,44.3323462 C10.8144662,44.2855071 10.6480424,44.2625213 10.4820588,44.2625213 C9.72082394,44.2625213 9.15066827,44.66022 8.86581058,45.2457088 L8.67517165,44.3323462 L7.15402275,44.3323462 L7.15402275,50.6074853 L8.91336024,50.6074853 L8.91336024,47.4462794 Z" id="Logotype-Premier-League"></path>
            </g>
        </g>
    </g>
</svg>
