<?xml version="1.0" encoding="UTF-8"?>
<svg width="44px" height="64px" viewBox="0 0 44 64" version="1.1" xmlns="http://www.w3.org/2000/svg" xmlns:xlink="http://www.w3.org/1999/xlink">
    <!-- Generator: sketchtool 59.1 (101010) - https://sketch.com -->
    <title>F5FDE9E1-3698-4F9C-ADA2-1D73CF3AA920</title>
    <desc>Created with sketchtool.</desc>
    <g id="Page-1" stroke="none" stroke-width="1" fill="none" fill-rule="evenodd" opacity="0.3">
        <g id="Dashboard" transform="translate(-194.000000, -32.000000)" fill="#37003C">
            <g id="Header" transform="translate(72.000000, 32.000000)">
                <path d="M126.633214,52.1903283 L126.688047,52.1766525 L126.369019,51.3797266 L126.327895,51.3871861 C126.117286,51.435673 125.90294,51.4630246 125.687346,51.4717274 C124.624336,51.6134583 123.647313,50.8687491 123.503999,49.80701 C123.48406,49.6590627 123.481568,49.508629 123.496522,49.3594385 C123.312084,48.2342934 124.076006,47.1750408 125.202574,46.9910392 C125.308501,46.9748769 125.415674,46.9649309 125.522848,46.9649309 C126.093609,46.9537416 126.659385,47.0743372 127.176559,47.3155286 L127.231392,47.3428802 L127.231392,46.3470335 L127.215191,46.3433038 C126.602059,46.1605454 125.962757,46.0809771 125.323455,46.1058422 C124.377587,46.0871934 123.465367,46.4489804 122.788679,47.1066619 C122.231626,47.7320187 121.949985,48.5538097 122.00731,49.3867901 C121.998587,50.1824728 122.311383,50.9458308 122.874667,51.5065385 C123.599957,52.1144898 124.539594,52.4103843 125.484215,52.3245998 C125.870538,52.3146537 126.254369,52.2674101 126.633214,52.1903283 L126.633214,52.1903283 Z M150.489272,50.7767483 C150.643801,50.535557 151.022647,50.4398264 151.7928,50.4398264 C151.7928,50.4398264 151.988454,50.4460426 152.055749,50.4460426 L152.055749,50.5492327 C152.083165,50.7779915 152.050764,51.0117233 151.962284,51.225563 C151.908697,51.3225369 151.825201,51.3996186 151.724259,51.445619 C151.537329,51.5413496 151.327967,51.5848635 151.119851,51.572431 C150.903011,51.5786472 150.691157,51.5028087 150.527904,51.3585912 C150.383345,51.1969682 150.367144,50.9570201 150.489272,50.7767483 L150.489272,50.7767483 Z M150.061825,52.1965446 C150.603923,52.3743299 151.180915,52.4228168 151.746691,52.3407621 C152.010886,52.310924 152.883227,52.1592469 153.075143,51.4916194 C153.146176,50.8662626 153.172347,50.2359327 153.152407,49.6068461 L153.152407,49.5210615 C153.228426,48.9889487 152.930583,48.4754847 152.42961,48.2778073 C152.078181,48.1323466 151.699335,48.0664541 151.319243,48.0813731 C150.779637,48.0801299 150.242524,48.1572117 149.724104,48.3076454 L149.681733,48.3213212 L149.800122,49.1281932 L149.862432,49.1045714 C150.262463,48.9292725 150.693649,48.8360285 151.12982,48.8273257 C151.789062,48.8273257 152.055749,49.0647872 152.055749,49.6441437 C152.055749,49.6441437 152.053257,49.7013334 152.049518,49.7423608 C151.376568,49.6665223 150.696142,49.7274417 150.048116,49.9226326 C149.569575,50.0705799 149.240577,50.5082054 149.231854,51.0079935 C149.246808,51.5351333 149.572067,52.0013537 150.061825,52.1965446 L150.061825,52.1965446 Z M164.891637,50.5492327 C164.919053,50.7779915 164.886652,51.0117233 164.798171,51.225563 C164.744585,51.3225369 164.661089,51.3996186 164.560147,51.445619 C164.373216,51.5413496 164.163854,51.5848635 163.955738,51.572431 C163.737653,51.5786472 163.525798,51.5028087 163.363792,51.3585912 C163.217986,51.1969682 163.203032,50.9570201 163.323914,50.7767483 C163.480935,50.535557 163.862273,50.4398264 164.627442,50.4398264 C164.627442,50.4398264 164.824342,50.4460426 164.891637,50.4460426 L164.891637,50.5492327 Z M165.264251,48.2778073 C164.912822,48.1323466 164.533976,48.0664541 164.153885,48.0813731 C163.615525,48.0813731 163.077165,48.1572117 162.558745,48.3076454 L162.51762,48.3213212 L162.63601,49.1281932 L162.695827,49.1045714 C163.097105,48.9305158 163.527045,48.8360285 163.964462,48.8273257 C164.624949,48.8273257 164.891637,49.0647872 164.891637,49.6441437 C164.891637,49.6441437 164.889144,49.7013334 164.885405,49.7423608 C164.213702,49.6665223 163.534522,49.7274417 162.887743,49.9226326 C162.406708,50.0680934 162.075218,50.5069621 162.066495,51.0079935 C162.080203,51.5351333 162.406708,52.0013537 162.896466,52.1965446 C163.43981,52.3730867 164.016802,52.4228168 164.582578,52.3407621 C164.846773,52.310924 165.719115,52.1592469 165.91103,51.4916194 C165.982064,50.8662626 166.008234,50.2359327 165.988295,49.6068461 L165.988295,49.5210615 C166.064313,48.9889487 165.763978,48.4754847 165.264251,48.2778073 L165.264251,48.2778073 Z M157.905424,48.6172157 C157.582658,48.2604018 157.115332,48.0664541 156.633051,48.0913192 L155.94764,48.0913192 C155.079037,48.031643 154.328823,48.6868379 154.269005,49.5521429 C154.261528,49.6491167 154.26402,49.7460905 154.276482,49.8430644 L154.27399,50.0917152 C154.27399,51.1671301 154.27399,51.4207539 154.225388,52.179139 L154.221649,52.2338422 L155.45539,52.2338422 L155.446666,51.9168124 L155.421742,51.0490209 L155.400557,50.1973918 L155.400557,50.0979315 C155.371894,49.8244155 155.415511,49.5459266 155.52767,49.293546 C155.808065,48.8782991 156.372595,48.7676495 156.790073,49.0486249 C156.886031,49.1132741 156.970772,49.1978154 157.035575,49.293546 C157.147733,49.5459266 157.19135,49.8244155 157.161441,50.0979315 L157.161441,50.1973918 L157.145241,51.0490209 L157.112839,51.9168124 L157.10287,52.2338422 L158.315425,52.2338422 L158.302963,51.9516235 C158.302963,51.959083 158.292993,51.2131305 158.292993,51.2131305 L158.292993,50.5305839 L158.302963,49.7721989 C158.311686,49.6279814 158.347826,49.4887369 158.40889,49.3581952 C158.457492,49.2487888 158.531018,49.1505718 158.620745,49.0710035 C158.772781,48.9417051 158.967189,48.8720828 159.167828,48.8770558 C159.50181,48.86338 159.804637,49.0710035 159.914303,49.3855468 C159.972875,49.6764683 159.991568,49.9711195 159.969136,50.2657708 C159.969136,50.9147495 159.960413,51.3561047 159.911811,51.9727588 L159.891871,52.1778958 L159.889379,52.2338422 L161.135582,52.2338422 L161.120627,51.9976239 L161.108165,51.2069142 L161.110658,50.9818852 L161.110658,50.6946935 L161.131843,49.8343616 C161.2116,49.2724107 160.973575,48.7129463 160.513727,48.3809974 C160.174759,48.1721307 159.782206,48.0676974 159.383421,48.0813731 C158.83883,48.0552648 158.305455,48.2479692 157.905424,48.6172157 L157.905424,48.6172157 Z M135.386542,51.0477777 L135.357879,51.9155691 L135.34791,52.2338422 L136.560465,52.2338422 L136.544264,51.9503802 C136.548003,51.959083 136.538033,51.2143737 136.538033,51.2143737 L136.538033,50.5293407 L136.548003,49.8443076 C136.650191,48.9827324 136.032075,48.2007256 135.168456,48.0987787 C135.071253,48.0863462 134.974049,48.0838597 134.878091,48.0900759 L134.188941,48.0900759 C133.321584,48.031643 132.57137,48.6855947 132.512799,49.5508996 C132.506568,49.6478734 132.50906,49.7448473 132.520276,49.8418211 L132.516537,50.0904719 C132.516537,51.1671301 132.516537,51.4219972 132.467935,52.179139 L132.461704,52.2338422 L133.704168,52.2338422 L133.69046,51.9155691 L133.661797,51.0477777 L133.643104,50.1973918 L133.643104,50.0979315 C133.614442,49.8244155 133.658059,49.5459266 133.771463,49.2947893 C134.050613,48.8795423 134.613896,48.7688927 135.028882,49.0473817 C135.127332,49.1120309 135.210827,49.1965722 135.276876,49.2947893 C135.39028,49.5459266 135.433898,49.8244155 135.405235,50.0979315 L135.405235,50.1973918 L135.386542,51.0477777 Z M142.801448,48.8012173 C143.460689,48.8012173 143.871936,49.3283571 143.871936,50.17377 C143.871936,51.0365884 143.446981,51.597296 142.791478,51.597296 C142.116036,51.597296 141.678619,51.0564805 141.678619,50.2235001 C141.678619,49.3470059 142.106067,48.8012173 142.801448,48.8012173 L142.801448,48.8012173 Z M142.407648,52.3569244 C142.516067,52.3631406 142.625733,52.3606541 142.734153,52.3494648 C143.894368,52.4688172 144.929962,51.6271341 145.049597,50.4709077 C145.059567,50.3751772 145.063306,50.2782033 145.059567,50.1812295 C145.1144,49.0535979 144.242058,48.0938057 143.110506,48.0391025 C143.00084,48.0328862 142.891174,48.036616 142.781509,48.0490485 C141.620048,47.9471017 140.594423,48.8037038 140.492234,49.9624168 C140.484757,50.0407418 140.482265,50.12031 140.484757,50.1986351 C140.418708,51.3250234 141.278588,52.2897886 142.407648,52.3569244 L142.407648,52.3569244 Z M139.641078,46.9201737 C139.91275,46.9089844 140.184422,46.9437956 140.443632,47.0246071 L140.497219,47.0395261 L140.610624,46.2438434 L140.571991,46.2289244 C140.214331,46.1406533 139.847947,46.0921664 139.481564,46.0859501 C138.601745,46.0175712 137.83533,46.6740094 137.769281,47.5517469 C137.761804,47.6375314 137.76305,47.7233159 137.770528,47.8103437 L137.766789,48.564999 L137.778005,50.0183632 L137.756819,51.8098925 L137.738126,52.8927669 L137.738126,53.1414178 L138.940712,53.1414178 L138.940712,52.8877939 L138.912049,51.8360009 L138.90208,50.6785312 L138.90208,49.7448473 C138.90208,49.7448473 138.912049,49.07349 138.912049,48.8894884 L140.088465,48.8894884 L140.205608,48.0875894 L138.920773,48.0875894 L138.920773,47.8128302 C138.945697,47.2210412 139.188706,46.9201737 139.641078,46.9201737 L139.641078,46.9201737 Z M147.185589,50.0631204 L147.185589,49.8467941 C147.204282,49.4153849 147.35258,48.8994344 147.954496,48.8994344 C148.152642,48.9006777 148.348296,48.9342455 148.53398,49.0013813 L148.595044,49.0374356 L148.720911,48.2243474 L148.677293,48.2144013 C148.388174,48.1348331 148.090332,48.0925624 147.791243,48.0875894 C146.551272,48.0875894 146.050298,48.5973236 146.050298,49.8467941 L146.050298,49.9437679 C146.050298,50.6996665 146.027867,51.5314036 146.001696,51.9665425 L145.989234,52.2338422 L147.230452,52.2338422 L147.208021,51.9889211 C147.185589,51.6059988 147.179358,51.2417253 147.179358,50.8824249 L147.179358,50.6710717 L147.185589,50.0631204 Z M130.502674,50.17377 C130.502674,51.0365884 130.077718,51.597296 129.424708,51.597296 C128.749266,51.597296 128.308111,51.0564805 128.308111,50.2235001 C128.308111,49.3470059 128.739297,48.8012173 129.435924,48.8012173 C130.090181,48.8012173 130.502674,49.3283571 130.502674,50.17377 L130.502674,50.17377 Z M129.414739,48.0490485 L129.414739,48.0490485 C128.25577,47.9458584 127.232638,48.7987308 127.129203,49.9562005 C127.122972,50.037012 127.12048,50.1178235 127.122972,50.1986351 C127.053185,51.3225369 127.910572,52.2873021 129.035893,52.3569244 C129.146805,52.3631406 129.257717,52.3606541 129.367383,52.3494648 C130.527598,52.4688172 131.565684,51.6258909 131.684074,50.4684212 C131.694043,50.3726906 131.696536,50.2769601 131.694043,50.1812295 C131.74763,49.0535979 130.875288,48.0938057 129.744982,48.0391025 C129.63407,48.0328862 129.524404,48.036616 129.414739,48.0490485 L129.414739,48.0490485 Z M161.460841,43.9761478 L162.991177,43.9761478 L162.991177,38.1465288 L160.622146,38.1465288 L160.622146,39.3959993 L161.460841,39.3959993 L161.460841,43.9761478 Z M154.801133,42.6806769 L152.909398,42.6806769 L152.909398,41.7059656 L154.660313,41.7059656 L154.660313,40.4154677 L152.909398,40.4154677 L152.909398,39.4705945 L154.767486,39.4705945 L154.767486,38.1465288 L151.382799,38.1465288 L151.382799,43.9761478 L154.801133,43.9761478 L154.801133,42.6806769 Z M148.556412,41.8762914 L148.556412,38.1465288 L147.014859,38.1465288 L147.014859,41.8016962 C147.017351,41.8514263 147.016105,41.9011565 147.01112,41.9508867 C146.952549,42.4631074 146.490208,42.8311106 145.975526,42.7726777 C145.902,42.7826237 145.825982,42.7826237 145.752456,42.7726777 C145.232789,42.7117582 144.862667,42.2418081 144.923731,41.7233711 L144.923731,38.1465288 L143.399625,38.1465288 L143.399625,42.0428875 C143.399625,43.4738731 144.657044,44.1427438 145.943125,44.1427438 C147.645438,44.1427438 148.556412,43.2078167 148.556412,41.8762914 L148.556412,41.8762914 Z M138.528219,44.1676089 C140.076003,43.9487962 141.152722,42.5215403 140.934636,40.9761754 L140.934636,40.6579023 L138.011045,40.6579023 L138.011045,41.8762914 L139.349466,41.8762914 C139.2236,42.4867292 138.679009,42.9218682 138.053416,42.9106789 C136.92311,42.9106789 136.467,42.118726 136.467,41.1303389 C136.467,40.0710863 136.918125,39.2604846 137.91758,39.2604846 C138.507033,39.2455655 139.057855,39.5551358 139.349466,40.0661133 L140.571991,39.3972425 C140.046094,38.4449098 139.021715,37.8767426 137.93378,37.9351756 C137.901379,37.9351756 137.870224,37.9351756 137.837823,37.9364188 C136.157941,37.9923653 134.840705,39.3959993 134.896784,41.0719059 C134.894292,41.1353119 134.893046,41.1987179 134.894292,41.2621238 C134.926693,42.9106789 136.293777,44.2210688 137.946242,44.187501 C138.14065,44.2011768 138.335057,44.1937172 138.528219,44.1676089 L138.528219,44.1676089 Z M130.856595,43.9749045 L132.380701,43.9749045 L132.380701,38.1465288 L130.856595,38.1465288 L130.856595,43.9749045 Z M128.396591,42.6533253 L126.547226,42.6533253 L126.547226,38.1465288 L125.024367,38.1465288 L125.024367,43.9761478 L128.396591,43.9761478 L128.396591,42.6533253 Z M146.112608,61.0907852 C145.768656,61.0907852 145.493246,61.3692741 145.494492,61.7099258 L145.494492,61.7148988 C145.495738,62.0543072 145.771149,62.3278231 146.112608,62.3265798 L146.115101,62.3265798 C146.45656,62.3253366 146.733217,62.0493342 146.733217,61.7074392 C146.731971,61.3667876 146.454068,61.0895419 146.112608,61.0907852 L146.112608,61.0907852 Z M144.305614,59.2159578 C144.492545,58.9026578 144.657044,58.5781684 144.797865,58.2424898 C144.999749,57.8396754 145.07826,57.3883741 145.024673,56.9408026 C145.013458,56.9010185 144.958625,56.8823697 144.926223,56.8773967 C144.75674,56.8326395 144.769202,57.3100491 144.174763,57.9366492 C144.23832,57.8434052 144.285675,57.7377286 144.284429,57.6158897 C144.284429,57.3001031 144.027711,57.0464792 143.711176,57.0477225 C143.395887,57.0477225 143.141661,57.3038328 143.141661,57.6196194 L143.141661,57.6208627 C143.142907,57.9341627 143.397133,58.1877866 143.711176,58.1877866 L143.714914,58.1877866 C143.792179,58.1865433 143.864459,58.1716243 143.931754,58.1430294 C143.803395,58.2611386 143.685006,58.390437 143.535461,58.4824378 C142.50859,57.5201591 141.482965,56.8488018 141.343391,56.9582082 C141.231232,57.050209 141.385762,57.1359935 141.556491,57.3448602 C142.09859,57.9105409 142.462481,58.6241688 142.600809,59.3949864 C142.552207,60.1446687 142.301721,60.8694859 141.876765,61.491113 C141.869288,61.5408432 141.895458,61.5893301 141.941568,61.6067357 C142.063696,61.637817 142.193301,61.5383567 142.346584,61.4015987 C142.466219,61.2959221 142.600809,61.182786 142.742876,61.0373252 C143.164093,60.5922402 143.582817,60.0601274 143.582817,60.0601274 C143.582817,60.0601274 143.579078,60.0116405 144.038927,60.5922402 C144.212149,60.8172692 144.364186,61.0584605 144.493791,61.3108412 C144.908777,62.0754425 144.827773,62.4620945 144.958625,62.4620945 C145.002242,62.4571215 145.040874,62.4297699 145.062059,62.3912291 C145.227804,61.994631 145.268929,61.5557622 145.182941,61.1342991 C145.028412,60.4418065 144.729323,59.7866115 144.305614,59.2159578 L144.305614,59.2159578 Z M148.094071,59.5180686 C148.094071,61.7646289 146.26963,63.5884829 144.016495,63.5909719 C141.763361,63.5934559 139.933935,61.7720885 139.931441,59.5230416 C139.928951,57.275238 141.754638,55.4513841 144.007772,55.448895 C146.262153,55.4464111 148.091578,57.2665352 148.094071,59.5155821 L148.094071,59.5180686 Z M147.35258,56.5193394 C147.346349,56.5143664 147.34261,56.5056636 147.336379,56.5019339 L147.32641,56.4882581 L147.315194,56.4807986 C146.750664,55.8678742 146.024128,55.4252757 145.219081,55.2027332 C145.200388,55.1952737 145.181695,55.1903007 145.161756,55.1878142 C145.130601,55.1778682 145.096953,55.1704086 145.068291,55.1654356 C145.017196,55.1517598 144.973579,55.1393273 144.923731,55.128138 L144.90753,55.1244082 C144.690691,55.0821376 144.470113,55.054786 144.248289,55.0435967 C144.171025,55.0386237 144.096252,55.0386237 144.016495,55.0386237 C143.936738,55.0386237 143.855735,55.0386237 143.775978,55.0435967 L143.698714,55.0510562 C143.643881,55.0535427 143.599018,55.0572725 143.544185,55.0622455 C143.511783,55.0672185 143.483121,55.069705 143.450719,55.0734348 C143.402118,55.0784078 143.357254,55.0883539 143.31613,55.0945701 C143.276251,55.0982999 143.24385,55.1057594 143.215187,55.1107324 C143.17157,55.1169487 143.129199,55.1244082 143.086828,55.133111 C143.053181,55.143057 143.018287,55.1505166 142.983393,55.1567328 C142.942269,55.1679221 142.903636,55.1778682 142.861266,55.1878142 C142.828864,55.1990035 142.793971,55.2077063 142.759077,55.216409 L142.645672,55.2512202 C142.610779,55.2611662 142.575885,55.274842 142.54473,55.2823015 C142.50859,55.2997071 142.469958,55.3121396 142.433818,55.3245722 C142.398924,55.3370047 142.362784,55.353167 142.334122,55.363113 C142.29549,55.3767888 142.261842,55.3941944 142.221964,55.4115999 C142.189562,55.4252757 142.1609,55.4377083 142.12476,55.4551138 C142.089866,55.4712761 142.051234,55.4874385 142.018833,55.504844 C141.99017,55.5210063 141.95403,55.5346821 141.922875,55.5520877 C141.886735,55.5707365 141.858072,55.588142 141.823179,55.6092774 C141.789531,55.6254397 141.75713,55.6428452 141.725975,55.6652238 C141.693574,55.6813861 141.666157,55.7012782 141.628771,55.7249 C141.597616,55.7410623 141.568953,55.7609544 141.536552,55.7796032 C141.507889,55.803225 141.476734,55.8256036 141.443087,55.8442524 C141.414424,55.8678742 141.385762,55.8890096 141.359591,55.9076584 C141.32719,55.9287937 141.296035,55.949929 141.266126,55.9760374 C141.233725,55.9996592 141.208801,56.0220378 141.178892,56.0456596 C141.148983,56.0680382 141.12032,56.0929033 141.09415,56.1177683 C141.064241,56.1401469 141.036825,56.1625255 141.011901,56.1898771 C140.9795,56.2147422 140.953329,56.2408505 140.925913,56.2657156 C140.902235,56.2930672 140.876065,56.311716 140.851141,56.3378243 C140.822478,56.3664192 140.793815,56.3975005 140.767645,56.4260954 C140.745213,56.448474 140.72652,56.4671228 140.706581,56.4857716 L140.704089,56.4907446 C140.635548,56.5640966 140.578222,56.6362053 140.515912,56.7132871 C139.882841,57.3908606 137.624722,59.3900134 132.886659,59.3900134 L125.021874,59.3900134 L125.021874,59.6834214 L132.886659,59.6834214 C132.886659,59.6834214 138.103264,59.5914206 140.675426,62.5118247 C140.681657,62.5217707 140.689134,62.5292303 140.696612,62.5379331 C140.696612,62.5429061 140.704089,62.5466358 140.706581,62.5503656 L140.712812,62.5565819 C141.279834,63.1695062 142.007617,63.6133479 142.81391,63.8346472 C142.832603,63.84335 142.852542,63.848323 142.871235,63.8520527 C142.899898,63.8619988 142.937284,63.8707016 142.9647,63.8769178 C143.014548,63.8868639 143.058166,63.9005397 143.106767,63.9079992 L143.121722,63.9129722 C143.341054,63.9577294 143.561631,63.9838377 143.784702,63.9937837 C143.861966,63.9987567 143.939231,64 144.016495,64 C144.096252,64 144.173517,63.9987567 144.250782,63.9937837 C144.276952,63.9937837 144.303122,63.9925405 144.328046,63.9875675 C144.382879,63.9838377 144.433973,63.9813512 144.486314,63.9763782 C144.519961,63.9726484 144.551116,63.9689186 144.579779,63.9651889 C144.628381,63.9577294 144.676983,63.9552428 144.718108,63.9452968 C144.754247,63.9390805 144.785402,63.9341075 144.817804,63.926648 C144.858928,63.9204317 144.901299,63.9154587 144.946163,63.9030262 C144.97981,63.8992964 145.013458,63.8868639 145.043366,63.8818909 C145.089476,63.8719448 145.126862,63.8619988 145.167987,63.8508095 C145.200388,63.84335 145.232789,63.8334039 145.263944,63.8222146 C145.306315,63.8110254 145.346194,63.8010793 145.391057,63.7874035 C145.418473,63.774971 145.45586,63.7687547 145.487015,63.7525924 C145.524401,63.7389166 145.564279,63.7277273 145.60665,63.7128083 C145.634067,63.6991325 145.666468,63.6879432 145.698869,63.6742674 C145.737501,63.6593483 145.776134,63.6469158 145.812274,63.628267 C145.840936,63.6133479 145.872091,63.6009154 145.905739,63.5835098 C145.939386,63.564861 145.979265,63.5486987 146.015405,63.5312932 C146.045313,63.5176174 146.075222,63.5026983 146.103885,63.486536 C146.141271,63.4678872 146.179903,63.4492384 146.213551,63.4256166 C146.242213,63.4094543 146.275861,63.3945352 146.300785,63.3758864 C146.336925,63.3559943 146.373065,63.3336157 146.406712,63.3112372 C146.432882,63.2950749 146.461545,63.2764261 146.491454,63.256534 C146.526348,63.2353987 146.558749,63.2117768 146.59115,63.1906415 C146.618567,63.173236 146.645983,63.1508574 146.670907,63.1334518 C146.705801,63.1085867 146.738202,63.0837217 146.773096,63.0563701 C146.800512,63.0389645 146.82419,63.0178292 146.847868,62.9942073 C146.876531,62.9693423 146.911424,62.9419907 146.94881,62.9158823 C146.96875,62.8922605 146.993674,62.8736117 147.018598,62.8549629 C147.04726,62.8238815 147.079662,62.7940434 147.115802,62.7629621 C147.136987,62.7405835 147.158172,62.7231779 147.175619,62.7007994 C147.211759,62.6684747 147.246653,62.6299339 147.279054,62.6000958 C147.294008,62.5826902 147.310209,62.5665279 147.32641,62.5516089 L147.32641,62.5466358 C147.391212,62.4745271 147.458507,62.4011751 147.517079,62.3253366 C148.151396,61.6465198 150.408269,59.647367 155.143839,59.647367 L163.008624,59.647367 L163.008624,59.3527158 L155.143839,59.3527158 C155.143839,59.3527158 149.917265,59.4459598 147.35258,56.5193394 L147.35258,56.5193394 Z M149.681733,30.3637575 C149.557113,29.5680748 148.021791,29.1503414 146.264645,29.4300736 C144.502514,29.7098057 143.176555,30.5863 143.308652,31.3819827 C143.434519,32.1801519 144.962363,32.5953988 146.728232,32.3144233 C148.491609,32.0334479 149.815077,31.1581969 149.681733,30.3637575 L149.681733,30.3637575 Z M138.06837,30.1971614 C138.326334,31.2104136 139.264725,31.9402038 141.134029,32.3206396 C140.712812,31.569714 140.442386,30.7441932 140.336459,29.8913209 C142.076158,28.7077429 143.967894,27.7641129 145.960572,27.0840529 C147.960727,27.2717843 149.94842,27.5913006 151.907451,28.0401154 C152.027086,28.8954742 152.002162,29.7632657 151.837663,30.611165 C153.412864,29.5730478 153.967424,28.6169853 153.677059,27.4296775 C153.304444,25.9017181 149.762736,24.5826254 145.641544,25.2104688 C141.134029,25.8967451 137.492624,27.9617903 138.06837,30.1971614 L138.06837,30.1971614 Z M157.615059,25.1408465 C158.241899,25.1781442 159.721142,21.8549257 160.172267,18.7368441 C160.592237,16.3672016 160.364182,13.9279369 159.513026,11.6764035 C159.145396,11.5508348 158.390197,14.5918346 157.865546,18.3116512 C157.345879,22.027738 157.228736,25.1172247 157.615059,25.1408465 L157.615059,25.1408465 Z M139.422992,3.71211705 C143.441996,2.33583465 146.577442,0.884956987 146.432882,0.470953337 C145.323762,0.0221385683 144.111207,-0.109646378 142.932299,0.0917608038 C143.307406,0.146463989 143.670051,0.268302901 144.004033,0.449818015 L139.75199,2.35696997 L134.666237,3.68600871 C134.420735,3.64498132 134.195172,3.5206559 134.028181,3.33665428 C132.709699,4.34120368 131.869758,5.24256298 131.893436,5.46013246 C131.940791,5.89278493 135.408974,5.09212922 139.422992,3.71211705 L139.422992,3.71211705 Z M138.428523,0.98939034 C137.351804,1.37355589 136.314963,1.86339805 135.334201,2.45270054 C137.395421,2.09340008 139.373144,1.36112335 141.170169,0.290681477 C140.236763,0.441115236 139.319558,0.674847026 138.428523,0.98939034 L138.428523,0.98939034 Z M154.108245,4.92056014 L154.108245,4.92056014 C155.37314,6.1513818 156.714055,7.30014869 158.124756,8.36188778 C157.266122,6.74938708 156.107154,5.31467172 154.710161,4.13606674 C153.748092,3.28070784 152.682589,2.54718786 151.541067,1.9516691 C151.101158,1.6856127 150.630093,1.47550273 150.139089,1.32382572 C150.115411,1.42079955 151.921159,2.95746175 154.108245,4.92056014 L154.108245,4.92056014 Z M138.641623,14.4041032 C139.03667,18.5428965 142.205763,21.8822773 146.326955,22.5014179 C146.326955,22.5014179 146.253429,21.6348697 146.147502,20.7732945 C146.050298,19.9166924 145.930663,19.0712795 145.930663,19.0712795 L144.902546,19.1794426 C144.1299,18.4285171 143.423303,17.6116991 142.791478,16.7389346 C142.219471,15.9059543 141.727221,15.0207573 141.322205,14.0957762 C141.322205,14.0957762 141.759622,12.5466814 142.335368,11.1169391 C142.927314,9.66606144 143.65385,8.33577944 143.65385,8.33577944 C144.582271,8.12442623 145.521908,7.96031667 146.467776,7.84469403 C147.996867,7.67063844 149.575806,7.6582059 149.575806,7.6582059 C150.284895,8.37680683 150.940398,9.14886769 151.531098,9.96692896 C152.139245,10.8546125 152.683835,11.7820801 153.163623,12.7443589 C153.009094,13.7203134 152.748638,14.6751326 152.387239,15.5938975 C151.951068,16.6071497 151.428909,17.5806177 150.824501,18.5031123 L149.897326,18.6547894 C149.897326,18.6547894 150.023192,19.4703641 150.08301,20.3070742 C150.152797,21.1872982 150.193922,22.0575761 150.193922,22.0575761 C154.065874,20.5221572 156.39378,16.554933 155.83922,12.4360318 C155.415511,7.54258326 151.099911,3.91601074 146.194858,4.33001439 C141.322205,5.03493953 137.942504,9.54297928 138.641623,14.4041032 L138.641623,14.4041032 Z M150.425716,13.0303073 L150.425716,13.0290641 C150.250001,11.390455 148.77699,10.2031473 147.133248,10.3772028 C145.526893,10.5612045 144.364186,11.9959198 144.519961,13.6022043 C144.678229,15.229624 146.128809,16.4206615 147.758842,16.2627683 C149.390121,16.104875 150.583984,14.6577271 150.425716,13.0303073 L150.425716,13.0303073 Z M129.772399,21.7119514 C130.675896,21.6037883 131.235441,20.0870182 131.023586,18.3178675 C130.811732,16.5512032 129.904496,15.2084887 128.999753,15.3166518 C128.096256,15.4260582 127.532973,16.9428283 127.749812,18.7094925 C127.961666,20.4774 128.865163,21.8238443 129.772399,21.7119514 L129.772399,21.7119514 Z M133.702922,17.4276974 C133.714138,19.5859868 133.481098,21.739303 133.008787,23.8453757 C131.868512,24.1934868 130.660941,24.2618658 129.489511,24.0405666 C130.492704,26.2125317 131.792493,26.7844286 133.195718,26.6290218 C135.494962,26.3716682 136.475723,21.7902765 136.042045,17.6054828 C135.572226,13.0800375 132.889152,9.22843596 130.589908,9.48454633 C129.389815,9.61757453 128.49878,11.1045066 127.929265,12.9171712 C128.806592,12.4633834 129.735013,12.119002 130.695835,11.8914865 C132.003102,13.5549606 133.020003,15.4273014 133.702922,17.4276974 L133.702922,17.4276974 Z" id="Logotype-Ligue-1"></path>
            </g>
        </g>
    </g>
</svg>